<svg xmlns="http://www.w3.org/2000/svg" viewBox="0 0 64 64" fill="none">
  <defs>
    <linearGradient id="bgv5" x1="8" y1="8" x2="56" y2="56" gradientUnits="userSpaceOnUse">
      <stop stop-color="#10C968"/>
      <stop offset="1" stop-color="#105AF0"/>
    </linearGradient>
  </defs>
  <rect x="6" y="6" width="52" height="52" rx="16" fill="url(#bgv5)"/>
  <path d="M32 15c-7.2 0-13 5.7-13 12.8 0 8.9 11 18.8 12 19.7a1.5 1.5 0 0 0 2 0c1-.9 12-10.8 12-19.7C45 20.7 39.2 15 32 15Z" fill="#F6FFF9"/>
  <circle cx="32" cy="27.8" r="8.6" fill="#149E49"/>
  <path d="M30.6 18.8v3.2M33.4 18.8v3.2" stroke="#149E49" stroke-width="2.2" stroke-linecap="round"/>
  <path d="M34 22.2 30.9 26.8h2.4l-.8 4.5 3.1-4.7h-2.3l.7-4.4Z" fill="#F6FFF9"/>
  <path d="M26 40.2h12" stroke="#CFFFE2" stroke-width="2.2" stroke-linecap="round"/>
  <path d="M29 43.6h6" stroke="#CFFFE2" stroke-width="2.2" stroke-linecap="round" opacity=".8"/>
</svg>
