<svg xmlns="http://www.w3.org/2000/svg" viewBox="0 0 64 64" fill="none">
  <defs>
    <linearGradient id="bgv3" x1="8" y1="10" x2="56" y2="54" gradientUnits="userSpaceOnUse">
      <stop stop-color="#09C766"/>
      <stop offset="1" stop-color="#1D5FF0"/>
    </linearGradient>
  </defs>
  <rect x="6" y="6" width="52" height="52" rx="16" fill="url(#bgv3)"/>
  <path d="M32 15c-7 0-12.5 5.7-12.5 12.6 0 8.5 9.7 17.7 11.3 19.2.7.7 1.7.7 2.4 0 1.6-1.5 11.3-10.7 11.3-19.2C44.5 20.7 39 15 32 15Z" fill="#ECFFF5"/>
  <rect x="25.5" y="21.5" width="13" height="12.5" rx="2.5" fill="#16A34A"/>
  <path d="M28.3 19.5v3.4M35.7 19.5v3.4" stroke="#16A34A" stroke-width="2.4" stroke-linecap="round"/>
  <path d="M34.1 23.4 30.8 28h2.6l-.9 4.9 3.3-4.7h-2.6l.9-4.8Z" fill="#ECFFF5"/>
  <path d="M28.5 37.2h7" stroke="#16A34A" stroke-width="2.2" stroke-linecap="round" opacity=".8"/>
</svg>
