<svg xmlns="http://www.w3.org/2000/svg" viewBox="0 0 64 64" fill="none">
  <defs>
    <linearGradient id="bgv4" x1="9" y1="9" x2="55" y2="55" gradientUnits="userSpaceOnUse">
      <stop stop-color="#0DCE6B"/>
      <stop offset="1" stop-color="#1464F4"/>
    </linearGradient>
  </defs>
  <rect x="6" y="6" width="52" height="52" rx="16" fill="url(#bgv4)"/>
  <path d="M32 15.5c-7.5 0-13.5 5.8-13.5 13.1 0 9 10.8 19 12.4 20.4a1.6 1.6 0 0 0 2.2 0c1.6-1.4 12.4-11.4 12.4-20.4 0-7.3-6-13.1-13.5-13.1Z" fill="#F3FFF8"/>
  <path d="M32 20c-4.6 0-8.3 3.7-8.3 8.2s3.7 8.2 8.3 8.2 8.3-3.7 8.3-8.2S36.6 20 32 20Z" fill="#19A34A"/>
  <path d="m33 22.7-3.6 5.1H32l-1 5.8 3.9-5.4h-2.7l.8-5.5Z" fill="#F3FFF8"/>
</svg>
