<svg xmlns="http://www.w3.org/2000/svg" viewBox="0 0 64 64" fill="none">
  <defs>
    <linearGradient id="bg2" x1="10" y1="8" x2="54" y2="56" gradientUnits="userSpaceOnUse">
      <stop stop-color="#0ECF6B"/>
      <stop offset="1" stop-color="#1E63F3"/>
    </linearGradient>
  </defs>
  <rect x="6" y="6" width="52" height="52" rx="16" fill="url(#bg2)"/>
  <path d="M32 15c-7.2 0-13 5.7-13 12.8 0 8.9 11 18.8 12 19.7a1.5 1.5 0 0 0 2 0c1-.9 12-10.8 12-19.7C45 20.7 39.2 15 32 15Z" fill="#EFFFF6"/>
  <rect x="26.5" y="22" width="11" height="12" rx="2.2" fill="#14A44A"/>
  <path d="M29 20.5v3M35 20.5v3" stroke="#14A44A" stroke-width="2.4" stroke-linecap="round"/>
  <path d="M33.8 24.5 30.7 29h2.4l-.8 4.3 3.1-4.5H33l.8-4.3Z" fill="#EFFFF6"/>
</svg>
